<?xml version="1.0" encoding="UTF-8"?>
<!DOCTYPE svg PUBLIC "-//W3C//DTD SVG 1.1//EN" "http://www.w3.org/Graphics/SVG/1.1/DTD/svg11.dtd">
<!-- Creator: CorelDRAW X7 -->
<svg xmlns="http://www.w3.org/2000/svg" xml:space="preserve" width="64.911mm" height="48.4184mm" version="1.1" style="shape-rendering:geometricPrecision; text-rendering:geometricPrecision; image-rendering:optimizeQuality; fill-rule:evenodd; clip-rule:evenodd"
viewBox="0 0 721 538"
 xmlns:xlink="http://www.w3.org/1999/xlink">
 <defs>
  <style type="text/css">
   <![CDATA[
    .fil0 {fill:#00ACEB}
   ]]>
  </style>
 </defs>
 <g id="Camada_x0020_1">
  <metadata id="CorelCorpID_0Corel-Layer"/>
  <g id="_1957615367712">
   <path class="fil0" d="M129 538c21,0 31,-5 51,-9l418 -79c15,-6 15,-20 23,-40l69 -182c8,-19 31,-76 31,-94 -78,0 -249,26 -341,32 -36,2 -78,10 -114,11 -51,2 -61,3 -71,50 -9,44 -66,289 -66,311z"/>
   <path class="fil0" d="M0 119c0,32 17,77 27,110l80 272c5,19 -1,17 14,21 0,-18 33,-159 37,-179 7,-29 27,-161 48,-171 13,-6 171,-20 198,-22l150 -14c43,-6 42,12 42,-41 0,-12 -8,-23 -12,-31 -91,0 -172,15 -263,15 -46,-87 3,-80 -129,-78 -20,0 -22,3 -39,4 -31,1 -64,-5 -70,20 -6,28 10,64 -13,73 -19,8 -70,-4 -70,21z"/>
  </g>
 </g>
</svg>
