<?xml version="1.0" encoding="UTF-8"?>
<!DOCTYPE svg PUBLIC "-//W3C//DTD SVG 1.1//EN" "http://www.w3.org/Graphics/SVG/1.1/DTD/svg11.dtd">
<!-- Creator: CorelDRAW X7 -->
<svg xmlns="http://www.w3.org/2000/svg" xml:space="preserve" width="203.2mm" height="210.256mm" version="1.1" style="shape-rendering:geometricPrecision; text-rendering:geometricPrecision; image-rendering:optimizeQuality; fill-rule:evenodd; clip-rule:evenodd"
viewBox="0 0 23241 24048"
 xmlns:xlink="http://www.w3.org/1999/xlink">
 <defs>
  <style type="text/css">
   <![CDATA[
    .fil0 {fill:#38B554}
   ]]>
  </style>
 </defs>
 <g id="Camada_x0020_1">
  <metadata id="CorelCorpID_0Corel-Layer"/>
  <g id="_2063828991024">
   <path class="fil0" d="M0 12096l0 1293c80,195 109,900 156,1181 64,376 139,726 242,1092 412,1462 888,2404 1713,3612 484,711 1259,1559 1935,2100 816,654 1428,1086 2429,1568 2281,1097 3950,992 4253,1106l1224 0c179,-64 628,-66 860,-96 1722,-220 3686,-943 5009,-1935 1085,-813 1687,-1328 2519,-2404 161,-208 286,-375 426,-582 270,-399 489,-789 729,-1248 951,-1825 1433,-4293 1103,-6647 -171,-1227 -458,-2036 -874,-3082 -184,-462 -457,-894 -686,-1290l-736 -1082c-82,-83 -3,-23 -105,-83 -168,268 -923,1078 -1018,1260 632,1002 1129,1475 1503,2924 668,2587 452,5097 -756,7438 -1544,2988 -4721,5049 -8184,5162 -1342,43 -2669,-170 -3814,-613 -575,-223 -1001,-436 -1502,-719 -272,-153 -1084,-710 -1324,-935 -119,-110 -192,-151 -284,-242l-559 -569c-157,-135 -148,-164 -265,-301l-486 -602c-2386,-3258 -2437,-7828 -260,-11038 1983,-2926 5119,-4589 8938,-4345 685,44 1291,134 1915,311 849,239 1048,449 1595,659 87,-75 943,-1163 1016,-1340l-1213 -556c-1382,-574 -3141,-799 -4645,-741 -2985,114 -5563,1405 -7505,3288l-836 939c-273,352 -491,654 -758,1058 -1721,2610 -1575,4955 -1755,5459z"/>
   <path class="fil0" d="M23241 470l0 -188c-294,-291 -204,-136 -470,-282l-1060 0c-323,138 -1687,53 -2683,1073 -94,97 -207,189 -301,303 -1227,1503 -2460,2974 -3586,4565 -1480,2093 -2656,3739 -4069,5939l-1468 2282c-257,317 -435,405 -681,-6 -805,-1349 -665,-3142 -2056,-2929 -624,95 -1308,497 -1681,818 -578,494 -717,784 -474,1801 277,1155 1390,5012 2255,5296 418,138 1906,105 2343,-26 666,-198 835,-659 1235,-1267l1992 -3012c686,-1012 1358,-1962 2041,-2963 171,-251 343,-484 524,-726 1288,-1726 2341,-3255 3731,-5025 379,-482 714,-917 1098,-1404l2232 -2771c247,-302 630,-748 833,-1065 77,-120 165,-292 245,-413z"/>
   <path class="fil0" d="M23241 282l0 -282 -470 0c266,146 176,-9 470,282z"/>
  </g>
 </g>
</svg>
