<?xml version="1.0" encoding="UTF-8"?>
<!DOCTYPE svg PUBLIC "-//W3C//DTD SVG 1.1//EN" "http://www.w3.org/Graphics/SVG/1.1/DTD/svg11.dtd">
<!-- Creator: CorelDRAW X7 -->
<svg xmlns="http://www.w3.org/2000/svg" xml:space="preserve" width="264.936mm" height="254mm" version="1.1" style="shape-rendering:geometricPrecision; text-rendering:geometricPrecision; image-rendering:optimizeQuality; fill-rule:evenodd; clip-rule:evenodd"
viewBox="0 0 10256 9832"
 xmlns:xlink="http://www.w3.org/1999/xlink">
 <defs>
  <style type="text/css">
   <![CDATA[
    .fil2 {fill:#A581AD}
    .fil1 {fill:#BA558C}
    .fil3 {fill:#E5CCFF}
    .fil0 {fill:red}
   ]]>
  </style>
 </defs>
 <g id="Camada_x0020_1">
  <metadata id="CorelCorpID_0Corel-Layer"/>
  <g id="_1957714830208">
   <path class="fil0" d="M749 8944l189 -222c33,-43 62,-66 96,-109l2408 -2755c28,-29 29,-26 52,-55l399 -451 -325 510c-111,175 -214,345 -327,520 -227,352 -789,1274 -849,1662 -48,308 -736,581 -1011,684 -186,70 -436,172 -632,216zm5788 -7098c24,-41 1028,-1050 1097,-1100l17 13c121,92 251,228 320,283 105,85 475,436 465,553 -97,18 -340,-106 -477,-131 -345,-63 -717,29 -1025,171 -73,34 -133,62 -201,100 -65,37 -131,82 -196,111zm-6113 -167c-52,-65 -123,-122 -41,-204 251,-252 1042,-717 1426,-937 73,-42 141,-90 218,-120 -19,35 -326,412 -406,534 -531,819 -590,1094 23,1888l-1220 -1161zm12 7798c47,-41 1291,-472 1455,-528 164,-55 597,-195 709,-286l194 -176c26,-24 31,-39 57,-64l270 -236c64,-60 12,-27 127,-119l391 -360c52,-58 79,-69 131,-115 54,-48 24,-38 126,-120l194 -174c33,-28 37,-40 66,-70l454 -407c64,-67 558,-523 597,-540l285 273c76,57 146,139 220,201 189,157 387,354 566,512l567 513c42,42 73,57 116,102l116 102c77,68 148,143 226,212l338 303c47,36 70,71 113,105l453 408c44,33 65,60 106,99l171 156c96,80 585,550 638,564l0 -95c3,-98 86,-1484 74,-1524l-1065 -1254c-21,-24 -25,-36 -48,-62 -35,-37 -30,-28 -57,-65 -26,-34 -23,-26 -52,-57 -25,-28 -29,-42 -55,-70l-798 -936c-25,-28 -34,-34 -58,-64l-373 -432c-25,-28 -28,-42 -54,-70 -67,-71 -47,-66 -116,-114 24,-68 138,-155 197,-203 44,-36 53,-62 94,-96l405 -360c42,-36 51,-62 94,-96 119,-95 120,-116 203,-180 50,-39 52,-49 96,-95 31,-32 71,-55 106,-86l298 -276c47,-38 53,-55 95,-95 34,-33 71,-53 106,-86l197 -186c37,-43 58,-55 101,-89 44,-35 56,-61 95,-96l1104 -996c-27,-53 -70,-70 -124,-115l-389 -320c-38,-32 -86,-68 -129,-104l-1164 -952c-64,-55 -221,-169 -259,-221 -41,-29 -83,-69 -122,-96 -40,28 -782,967 -848,1050l-283 359c-190,237 -372,469 -565,705 -167,204 -417,538 -575,713 -16,43 -138,185 -172,216l-162 -192c-28,-37 -52,-57 -81,-96 -104,-136 -358,-408 -490,-575l-1064 -1244c-61,-64 -103,-124 -166,-189l-533 -629c-31,-35 -97,-100 -117,-145 -42,-33 -201,-259 -283,-314l-812 581c-113,82 -1339,942 -1373,989l1178 1075c51,43 69,58 116,104 28,27 33,27 60,48l179 163c49,47 67,67 121,111l2129 1941c-101,149 -1697,2127 -1820,2277l-453 571c-78,99 -148,184 -225,281l-910 1137c-36,45 -212,247 -225,295l286 -96z"/>
   <path class="fil1" d="M7646 437c38,52 195,166 259,221l1164 952c43,36 91,72 129,104l389 320c54,45 97,62 124,115l-1104 996c-39,35 -51,61 -95,96 -43,34 -64,46 -101,89l-197 186c-35,33 -72,53 -106,86 -42,40 -48,57 -95,95l-298 276c-35,31 -75,54 -106,86 -44,46 -46,56 -96,95 -83,64 -84,85 -203,180 -43,34 -52,60 -94,96l-405 360c-41,34 -50,60 -94,96 -59,48 -173,135 -197,203 69,48 49,43 116,114 26,28 29,42 54,70l373 432c24,30 33,36 58,64l798 936c26,28 30,42 55,70 29,31 26,23 52,57 27,37 22,28 57,65 23,26 27,38 48,62l1065 1254c12,40 -71,1426 -74,1524 37,21 29,5 45,-50 8,-32 15,-58 26,-98l325 -1150c68,-259 86,-161 -19,-294 -28,-35 -52,-64 -81,-98l-82 -95c-15,-19 -24,-24 -40,-42l-894 -1045c-21,-25 -19,-28 -41,-54 -16,-18 -25,-23 -41,-42l-1342 -1580 816 -741c41,-36 62,-47 103,-88l511 -472c40,-40 64,-50 103,-88l1632 -1495c36,-37 60,-79 113,-93 -15,-54 -263,-202 -312,-235l-2209 -1505c-40,-27 -54,-49 -89,-35z"/>
   <path class="fil2" d="M436 9477l2446 -545c49,-16 66,-51 138,-108 48,-39 77,-81 125,-121 55,-47 78,-66 129,-117 48,-49 87,-72 137,-123l1297 -1188c48,-48 83,-69 130,-116l654 -604 -285 -273c-39,17 -533,473 -597,540l-454 407c-29,30 -33,42 -66,70l-194 174c-102,82 -72,72 -126,120 -52,46 -79,57 -131,115l-391 360c-115,92 -63,59 -127,119l-270 236c-26,25 -31,40 -57,64l-194 176c-112,91 -545,231 -709,286 -164,56 -1408,487 -1455,528z"/>
   <path class="fil3" d="M749 8944c196,-44 446,-146 632,-216 275,-103 963,-376 1011,-684 60,-388 622,-1310 849,-1662 113,-175 216,-345 327,-520l325 -510 -399 451c-23,29 -24,26 -52,55l-2408 2755c-34,43 -63,66 -96,109l-189 222z"/>
   <path class="fil3" d="M1644 2840c-613,-794 -554,-1069 -23,-1888 80,-122 387,-499 406,-534 -77,30 -145,78 -218,120 -384,220 -1175,685 -1426,937 -82,82 -11,139 41,204l1220 1161z"/>
   <path class="fil2" d="M2468 314c20,45 86,110 117,145l533 629c63,65 105,125 166,189l1064 1244c132,167 386,439 490,575 29,39 53,59 81,96l162 192c34,-31 156,-173 172,-216l-965 -1120c-181,-235 -611,-690 -800,-934l-322 -375c-29,-36 -53,-63 -80,-97 -44,-57 -364,-434 -409,-464 -39,10 -70,40 -99,65 -34,28 -64,60 -110,71z"/>
   <path class="fil3" d="M6537 1846c65,-29 131,-74 196,-111 68,-38 128,-66 201,-100 308,-142 680,-234 1025,-171 137,25 380,149 477,131 10,-117 -360,-468 -465,-553 -69,-55 -199,-191 -320,-283l-17 -13c-69,50 -1073,1059 -1097,1100z"/>
  </g>
 </g>
</svg>
