<?xml version="1.0" encoding="UTF-8"?>
<!DOCTYPE svg PUBLIC "-//W3C//DTD SVG 1.1//EN" "http://www.w3.org/Graphics/SVG/1.1/DTD/svg11.dtd">
<!-- Creator: CorelDRAW X8 -->
<svg xmlns="http://www.w3.org/2000/svg" xml:space="preserve" width="118.54mm" height="84.6665mm" version="1.1" style="shape-rendering:geometricPrecision; text-rendering:geometricPrecision; image-rendering:optimizeQuality; fill-rule:evenodd; clip-rule:evenodd"
viewBox="0 0 13368 9548"
 xmlns:xlink="http://www.w3.org/1999/xlink">
 <defs>
  <style type="text/css">
   <![CDATA[
    .fil0 {fill:black}
   ]]>
  </style>
 </defs>
 <g id="Camada_x0020_1">
  <metadata id="CorelCorpID_0Corel-Layer"/>
  <g id="arquivo.svg">
   <g>
    <polygon class="fil0" points="6684,0 10504,3452 8116,3452 8116,6317 5240,6317 5240,3452 2865,3452 "/>
    <path class="fil0" d="M12932 6003l-2130 -1641 -1253 0 1850 1844 -1510 0c-69,0 -128,36 -161,87l-549 1357 -4998 0 -549 -1357c-30,-54 -93,-87 -161,-87l-1507 0 1856 -1844 -1259 0 -2131 1641c-316,185 -471,567 -421,943l260 1996c69,391 289,606 839,606l11153 0c570,0 770,-227 838,-606l260 -1996c51,-385 -110,-758 -427,-943z"/>
   </g>
  </g>
 </g>
</svg>
