<svg id="Layer_1" data-name="Layer 1" xmlns="http://www.w3.org/2000/svg" viewBox="0 0 170 34"><defs><style>.cls-1{fill:#d34836;}.cls-2{fill:#fff;}</style></defs><title>Google-SignIn</title><rect class="cls-1" width="170" height="34"/><path class="cls-2" d="M42.62,18.21A2.62,2.62,0,0,0,43,19.5a2.36,2.36,0,0,0,2.13.93,3.65,3.65,0,0,0,1.25-.2,1.43,1.43,0,0,0,1.09-1.41A1.23,1.23,0,0,0,47,17.73a4.57,4.57,0,0,0-1.46-.55l-1.22-.29a5.43,5.43,0,0,1-1.7-.62,2,2,0,0,1-.86-1.75,2.72,2.72,0,0,1,.85-2.06,3.33,3.33,0,0,1,2.4-.81,4.08,4.08,0,0,1,2.42.71,2.58,2.58,0,0,1,1,2.26H47.22a2.41,2.41,0,0,0-.39-1.15A2.21,2.21,0,0,0,45,12.75a2.12,2.12,0,0,0-1.54.47,1.5,1.5,0,0,0-.47,1.09,1.07,1.07,0,0,0,.55,1,8,8,0,0,0,1.64.51l1.27,0.3a3.82,3.82,0,0,1,1.42.59,2.24,2.24,0,0,1,.86,1.9,2.39,2.39,0,0,1-1.1,2.22,4.82,4.82,0,0,1-2.55.67,3.76,3.76,0,0,1-2.66-.89,3,3,0,0,1-.94-2.39h1.19Z"/><path class="cls-2" d="M50.31,11.9h1.16v1.29H50.31V11.9Zm0,2.56h1.16v6.77H50.31V14.46Z"/><path class="cls-2" d="M57,14.7a3.13,3.13,0,0,1,.66.65V14.49h1.05v6.18a4.58,4.58,0,0,1-.38,2,2.72,2.72,0,0,1-2.68,1.38,3.28,3.28,0,0,1-1.84-.49A1.92,1.92,0,0,1,53,22.07h1.16a1.29,1.29,0,0,0,.33.7,2.07,2.07,0,0,0,2.92-.55,5.24,5.24,0,0,0,.22-1.95,2.24,2.24,0,0,1-.82.77,2.94,2.94,0,0,1-3.2-.53,3.46,3.46,0,0,1-.83-2.59,3.94,3.94,0,0,1,.83-2.67,2.57,2.57,0,0,1,2-1A2.46,2.46,0,0,1,57,14.7Zm0.14,1.23a1.65,1.65,0,0,0-1.32-.61,1.63,1.63,0,0,0-1.64,1.13A4.46,4.46,0,0,0,53.93,18a2.82,2.82,0,0,0,.46,1.75,1.5,1.5,0,0,0,1.25.6,1.75,1.75,0,0,0,1.72-1.11,3.59,3.59,0,0,0,.28-1.47A2.84,2.84,0,0,0,57.12,15.92Z"/><path class="cls-2" d="M60.43,14.42h1.09v1a3,3,0,0,1,1-.86,2.73,2.73,0,0,1,1.2-.26,2,2,0,0,1,2,1A3.58,3.58,0,0,1,66,16.86v4.36H64.81V16.94a2.32,2.32,0,0,0-.18-1,1.11,1.11,0,0,0-1.1-.63,2.25,2.25,0,0,0-.67.08,1.72,1.72,0,0,0-.83.56,1.67,1.67,0,0,0-.37.7,4.64,4.64,0,0,0-.09,1v3.56H60.43v-6.8Z"/><path class="cls-2" d="M71.27,11.9h1.16v1.29H71.27V11.9Zm0,2.56h1.16v6.77H71.27V14.46Z"/><path class="cls-2" d="M74.16,14.42h1.09v1a3,3,0,0,1,1-.86,2.73,2.73,0,0,1,1.2-.26,2,2,0,0,1,2,1,3.58,3.58,0,0,1,.28,1.58v4.36H78.54V16.94a2.32,2.32,0,0,0-.18-1,1.11,1.11,0,0,0-1.1-.63,2.25,2.25,0,0,0-.67.08,1.72,1.72,0,0,0-.83.56,1.67,1.67,0,0,0-.37.7,4.64,4.64,0,0,0-.09,1v3.56H74.16v-6.8Z"/><path class="cls-2" d="M85.54,14.42l1.31,5.36,1.33-5.36h1.28l1.33,5.33,1.39-5.33h1.14l-2,6.8H90.16L88.77,16l-1.34,5.26H86.25l-2-6.8h1.25Z"/><path class="cls-2" d="M94.39,11.9h1.16v1.29H94.39V11.9Zm0,2.56h1.16v6.77H94.39V14.46Z"/><path class="cls-2" d="M97.51,12.53h1.16v1.9h1.08v0.93H98.67v4.44a0.48,0.48,0,0,0,.24.48,1,1,0,0,0,.44.07h0.18l0.22,0v0.91a2.56,2.56,0,0,1-.41.08l-0.46,0a1.24,1.24,0,0,1-1.09-.41,1.82,1.82,0,0,1-.29-1.06v-4.5H96.59V14.42h0.92v-1.9Z"/><path class="cls-2" d="M100.89,11.87H102v3.48a3.27,3.27,0,0,1,.73-0.72,2.46,2.46,0,0,1,1.38-.36,2,2,0,0,1,2,1,3.53,3.53,0,0,1,.29,1.57v4.36h-1.17V16.94a2.4,2.4,0,0,0-.19-1.1,1.22,1.22,0,0,0-1.17-.56,2,2,0,0,0-1.29.49,2.35,2.35,0,0,0-.58,1.85v3.61h-1.14V11.87Z"/><path class="cls-2" d="M118.09,12.16a3.31,3.31,0,0,1,1.68,2.56h-1.25a2.27,2.27,0,0,0-.93-1.49,3.13,3.13,0,0,0-1.77-.47,2.75,2.75,0,0,0-2.14,1,4.23,4.23,0,0,0-.87,2.89,4.7,4.7,0,0,0,.71,2.71,2.62,2.62,0,0,0,2.33,1,2.94,2.94,0,0,0,2-.73,3.1,3.1,0,0,0,.83-2.37h-2.92v-1h4.09v5h-0.81l-0.3-1.2a4.74,4.74,0,0,1-1.12,1,4.13,4.13,0,0,1-2.08.47,4,4,0,0,1-2.8-1.07,5.14,5.14,0,0,1-1.28-3.69A5.35,5.35,0,0,1,112.78,13a4,4,0,0,1,3.08-1.32A4.67,4.67,0,0,1,118.09,12.16Z"/><path class="cls-2" d="M126.77,15.1a3.43,3.43,0,0,1,.9,2.57,4.44,4.44,0,0,1-.79,2.71,2.87,2.87,0,0,1-2.46,1.07,2.77,2.77,0,0,1-2.21-.95,3.76,3.76,0,0,1-.82-2.55,4.07,4.07,0,0,1,.86-2.73,2.89,2.89,0,0,1,2.32-1A3,3,0,0,1,126.77,15.1Zm-0.71,4.52a4.32,4.32,0,0,0,.42-1.91,3.43,3.43,0,0,0-.3-1.55,1.69,1.69,0,0,0-1.64-.94A1.62,1.62,0,0,0,123,16a3.74,3.74,0,0,0-.47,1.93,3.25,3.25,0,0,0,.47,1.81,1.65,1.65,0,0,0,1.49.72A1.56,1.56,0,0,0,126.06,19.62Z"/><path class="cls-2" d="M134,15.1a3.43,3.43,0,0,1,.9,2.57,4.44,4.44,0,0,1-.79,2.71,2.87,2.87,0,0,1-2.46,1.07,2.77,2.77,0,0,1-2.21-.95,3.76,3.76,0,0,1-.82-2.55,4.07,4.07,0,0,1,.86-2.73,2.89,2.89,0,0,1,2.32-1A3,3,0,0,1,134,15.1Zm-0.71,4.52a4.32,4.32,0,0,0,.42-1.91,3.43,3.43,0,0,0-.3-1.55,1.69,1.69,0,0,0-1.64-.94,1.62,1.62,0,0,0-1.51.8,3.74,3.74,0,0,0-.47,1.93,3.25,3.25,0,0,0,.47,1.81,1.65,1.65,0,0,0,1.49.72A1.56,1.56,0,0,0,133.29,19.62Z"/><path class="cls-2" d="M140.09,14.7a3.13,3.13,0,0,1,.66.65V14.49h1.05v6.18a4.58,4.58,0,0,1-.38,2,2.72,2.72,0,0,1-2.68,1.38,3.28,3.28,0,0,1-1.84-.49,1.92,1.92,0,0,1-.83-1.54h1.16a1.29,1.29,0,0,0,.33.7,2.07,2.07,0,0,0,2.92-.55,5.24,5.24,0,0,0,.22-1.95,2.24,2.24,0,0,1-.82.77,2.94,2.94,0,0,1-3.2-.53,3.46,3.46,0,0,1-.83-2.59,3.94,3.94,0,0,1,.83-2.67,2.57,2.57,0,0,1,2-1A2.46,2.46,0,0,1,140.09,14.7Zm0.14,1.23a1.65,1.65,0,0,0-1.32-.61,1.63,1.63,0,0,0-1.64,1.13A4.46,4.46,0,0,0,137,18a2.82,2.82,0,0,0,.46,1.75,1.5,1.5,0,0,0,1.25.6,1.75,1.75,0,0,0,1.72-1.11,3.59,3.59,0,0,0,.28-1.47A2.84,2.84,0,0,0,140.23,15.92Z"/><path class="cls-2" d="M143.57,11.9h1.14v9.32h-1.14V11.9Z"/><path class="cls-2" d="M150.63,14.61a2.57,2.57,0,0,1,1,.88,3,3,0,0,1,.45,1.2,7.88,7.88,0,0,1,.1,1.5h-4.95a2.94,2.94,0,0,0,.49,1.66,1.62,1.62,0,0,0,1.4.63,1.81,1.81,0,0,0,1.42-.59,2,2,0,0,0,.42-0.8h1.12a2.37,2.37,0,0,1-.29.83,3,3,0,0,1-.56.75,2.64,2.64,0,0,1-1.28.69,3.84,3.84,0,0,1-.93.1,2.84,2.84,0,0,1-2.14-.92A3.61,3.61,0,0,1,146,18a3.92,3.92,0,0,1,.88-2.66,2.91,2.91,0,0,1,2.31-1A3.07,3.07,0,0,1,150.63,14.61ZM151,17.28a3,3,0,0,0-.32-1.19,1.64,1.64,0,0,0-1.55-.83,1.71,1.71,0,0,0-1.31.57,2.15,2.15,0,0,0-.56,1.44H151Z"/><path class="cls-2" d="M20.25,25.11c-2.14,0-3.68-1.35-3.68-3s1.92-2.92,4.06-2.9a4.66,4.66,0,0,1,1.39.22c1.16,0.81,2,1.26,2.23,2.19a2.46,2.46,0,0,1,.07.58c0,1.63-1,2.9-4.05,2.9m0.56-9.54c-1.43,0-2.8-1.61-3-3.49s0.72-3.33,2.15-3.29,2.8,1.56,3,3.44-0.71,3.38-2.15,3.34m3,2.79a3.63,3.63,0,0,1-1.47-1.73c0-.6.17-0.89,1.07-1.6A3.75,3.75,0,0,0,25,12.12a3.32,3.32,0,0,0-1.8-3.22h1.77L26.18,8H20.61c-2.5,0-4.85,1.89-4.85,4.09a4,4,0,0,0,4.24,4h0.52a2.26,2.26,0,0,0-.28,1A2.17,2.17,0,0,0,21,18.7H20c-3.09,0-5.48,2-5.48,4S17.16,26,20.26,26c3.53,0,5.48-2,5.48-4a3.88,3.88,0,0,0-1.95-3.62m8.11-2.63H29.72V13.56H28v2.17H25.81v1.75H28v2.17h1.75V17.48h2.17V15.73Z"/></svg>